<svg xmlns="http://www.w3.org/2000/svg" width="205.303" height="140" viewBox="0 0 205.303 140">
  <g id="Grupo_3535" data-name="Grupo 3535" transform="translate(574 615.001)">
    <path id="Caminho_6545" data-name="Caminho 6545" d="M203.821,83.206a11.707,11.707,0,0,0-3.759-5.905,11.639,11.639,0,0,0-1.933-6.832,43.917,43.917,0,0,0-8.411-9.417,11.721,11.721,0,0,0-19.253,9.567,11.666,11.666,0,0,0-4.259,1.4,11.938,11.938,0,0,0-6.778-3.286A12.084,12.084,0,0,0,161.1,63.07l.1-1.977a11.353,11.353,0,0,0-4.715-10.168l1.865-2.117.035-.04.035-.04a13.224,13.224,0,0,0,3.592-8.5l.038-.736c.286-5.449-3.426-11.177-11.071-11.578l-3.887-.2-3.568-.188-.11,0-5.828-.306-6.386-.334q-.373-.02-.731-.02a12.435,12.435,0,0,0-3.319.449,12.622,12.622,0,0,0-4.206-.948l-2.655-.138q-.375-.02-.736-.02a12.5,12.5,0,0,0-3.192.408,20.191,20.191,0,0,0-7.168-1.651q-.689-.035-1.357-.035a22.825,22.825,0,0,0-5.426.662,11.633,11.633,0,0,0-3.428-9.009,11.8,11.8,0,0,0-7.746-3.212L87.75,13.18c-.255-.013-.5-.02-.744-.02a11.707,11.707,0,0,0-7.125,2.285A22.211,22.211,0,0,0,69.41,12.3l-15.88-.831q-.373-.02-.731-.02a11.491,11.491,0,0,0-7.585,2.687,10.884,10.884,0,0,0-2.369,2.888c-.153-.209-.3-.421-.474-.622a11.707,11.707,0,0,0-7.533-4.1A11.727,11.727,0,0,0,15.584,2.746,43.627,43.627,0,0,0,.166,39.941a11.719,11.719,0,0,0,2.669,6.5,11.647,11.647,0,0,0,.723,7.036,43.938,43.938,0,0,0,6.649,10.734,11.665,11.665,0,0,0,10.882,4.033,13.2,13.2,0,0,0-.886,5.693l2.259,43.117a12.931,12.931,0,0,0,2.165,6.71,12.009,12.009,0,0,0,10.141,5.117c.263,0,.532-.008.807-.021l4.631-.244a12.811,12.811,0,0,0,7.5-2.756,12.136,12.136,0,0,0,4.3-10.355l-.173-3.291,2.937-.155a25.888,25.888,0,0,0,10.37-2.7l.286,5.448a12.546,12.546,0,0,0,3.228,8.047,12.172,12.172,0,0,0,9.078,3.78c.263,0,.532-.007.805-.021l4.489-.235a14.393,14.393,0,0,0,2.646-.385c-.425,5.54,2.664,10.273,8.36,12.276A38.369,38.369,0,0,0,106.075,140c.759,0,1.515-.02,2.246-.058,10.39-.545,21.127-5.843,25.445-16.233l8.567-.449,7.361-.385,9.888-.519a12.283,12.283,0,0,0,9.442-4.781,11.676,11.676,0,0,0,1.068-1.757,11.707,11.707,0,0,0,3.8.64c.2,0,.39-.021.586-.031a11.725,11.725,0,0,0,20.622,6.085,43.627,43.627,0,0,0,8.725-39.307" transform="translate(-574 -615.001)" fill="#fff"/>
    <path id="União_1" data-name="União 1" d="M84.887,114.387c-2.379-.819-3.074-2.26-2.31-4.652l.645-2.05c.769-2.325,2.1-3.063,4.68-2.389a19.834,19.834,0,0,0,6.35.615c4.454-.229,8.207-1.966,7.933-7.059l-.093-1.744c-.021-.4,0-1.277,0-1.277l-.137.008c-1.77,2.845-4.226,4.45-8.4,4.665C82.73,101.058,77,92.817,76.526,83.971c-.47-8.78,4.229-17.22,15.255-17.785,7.534-.385,9.9,4,9.9,4l.136-.008a2.977,2.977,0,0,1-.1-.666l-.008-.134c-.085-1.608,1.147-2.949,3.612-3.076l3.22-.164c2.465-.127,3.835,1.081,3.965,3.492l1.482,27.679c.674,12.6-9.558,17.76-18.53,18.22-.577.03-1.157.044-1.735.044A30,30,0,0,1,84.887,114.387Zm9.468-38.655c-4.178.214-6.144,3.273-5.931,7.225.229,4.29,2.488,8.006,7.215,7.763,3.082-.158,6.287-1.869,5.964-7.9-.307-5.719-3.279-7.105-6.586-7.105C94.8,75.715,94.576,75.721,94.354,75.732ZM22.238,103.806a4.189,4.189,0,0,1-.662-2.2L19.406,61.063a3.639,3.639,0,0,1,.861-2.848,3.9,3.9,0,0,1,2.708-1.031l19.248-.989c9.52-.486,16.325,6.019,16.842,15.669S53.517,88.814,44,89.3l-2.933.152-7,.358a16.316,16.316,0,0,1-8.821-1.917h0c2.205,2.022,4.5,2.618,7.522,2.925l.254.026.028.555.515,9.592a3.471,3.471,0,0,1-1.124,3.087,4.186,4.186,0,0,1-2.446.794l-4.452.227q-.177.009-.346.009A3.368,3.368,0,0,1,22.238,103.806Zm9.51-35.636a5.266,5.266,0,1,0,.279-.007C31.935,68.162,31.842,68.165,31.748,68.17ZM46.863,67.4a5.266,5.266,0,1,0,.279-.007C47.05,67.388,46.957,67.391,46.863,67.4Zm121.806,34.972a2.953,2.953,0,0,1-.378-4.225,26.537,26.537,0,0,0,5.519-24.306,2.993,2.993,0,0,1,2.166-3.674,3.073,3.073,0,0,1,3.754,2.121A32.452,32.452,0,0,1,172.986,102a3.114,3.114,0,0,1-4.318.37ZM63.8,102.015a3.854,3.854,0,0,1-.928-2.525L61.418,72.348a3.685,3.685,0,0,1,.821-2.807,3.884,3.884,0,0,1,2.75-1.073l4.315-.221a3.824,3.824,0,0,1,2.93.86,3.762,3.762,0,0,1,1.033,2.633l1.454,27.142a3.753,3.753,0,0,1-.742,2.718,3.794,3.794,0,0,1-2.828,1.161l-4.315.222q-.176.009-.345.009A3.546,3.546,0,0,1,63.8,102.015Zm52.135-4.44-.046-.87a5.587,5.587,0,0,1,1.424-4.174l10.562-14.384a22.165,22.165,0,0,1,2.913-3.309l-.006-.134a24.067,24.067,0,0,1-3.076.293l-8.63.443a3.892,3.892,0,0,1-2.859-.794,3.7,3.7,0,0,1-1.106-2.7l-.127-2.345a3.536,3.536,0,0,1,1.009-2.991,4.071,4.071,0,0,1,2.562-.89l7.738-.4,7.074-.363.125-.006,4.324-.223,4.711-.242c2.465-.126,3.821.813,3.92,2.691l.048.871a5.59,5.59,0,0,1-1.426,4.171L134.582,86.673a20.387,20.387,0,0,1-2.982,3.311l.006.133a16.546,16.546,0,0,1,3.141-.363l9.452-.484c2.465-.127,3.836,1.081,3.963,3.492l.127,2.345a3.854,3.854,0,0,1-.65,2.605,3.706,3.706,0,0,1-2.919,1.274l-9.5.488-7.074.362-8.286.426q-.221.011-.43.011C117.233,100.275,116.03,99.339,115.934,97.575Zm41-4.844a2.952,2.952,0,0,1-.378-4.223c1.024-1.195,1.96-4.732,1.752-8.585-.186-3.685-1.406-6.789-3.262-8.314a2.954,2.954,0,0,1-.378-4.223,3.111,3.111,0,0,1,4.318-.37c3.187,2.617,5.171,7.208,5.444,12.6.28,5.163-.968,10.17-3.177,12.747a3.112,3.112,0,0,1-4.318.368Zm13.887-26.12a2.958,2.958,0,0,1-.587-.645,27.531,27.531,0,0,0-5.34-5.843,2.953,2.953,0,0,1-.377-4.225,3.109,3.109,0,0,1,4.316-.368,33.522,33.522,0,0,1,6.514,7.129,2.962,2.962,0,0,1-.869,4.155,3.116,3.116,0,0,1-3.658-.2ZM61.956,63.593A3.871,3.871,0,0,1,60.8,60.77l-.1-1.752a4.2,4.2,0,0,1,.551-2.542,3.768,3.768,0,0,1,3.187-1.519l4.227-.216a4.2,4.2,0,0,1,2.832.7,3.759,3.759,0,0,1,1.316,2.954l.1,1.752a3.542,3.542,0,0,1-1.385,3.385,4.63,4.63,0,0,1-2.351.677l-4.229.217q-.184.009-.36.009A3.859,3.859,0,0,1,61.956,63.593Zm33.056-.93a25.147,25.147,0,0,1-8.237-1.754c-1.807-.839-2.234-2.033-1.427-3.856l.682-1.565c.8-1.77,1.918-2.245,3.892-1.5a15.682,15.682,0,0,0,4.957,1c3.532.181,6.638-.884,6.853-4.923l.074-1.383c.018-.319.109-1.006.109-1.006l-.109,0c-1.636,2.1-3.708,3.166-7.022,3-8.581-.44-12.4-7.4-12.025-14.417.372-6.96,4.793-13.235,13.536-12.788,5.975.307,7.467,3.954,7.467,3.954l.109.007a2.393,2.393,0,0,1-.025-.534l.007-.107c.068-1.276,1.153-2.232,3.109-2.132l2.552.13c1.954.1,2.933,1.162,2.831,3.076L111.167,49.8c-.508,9.5-8.22,12.893-15.092,12.892C95.718,62.69,95.363,62.681,95.011,62.663ZM92.225,36.41c-.182,3.4,1.285,6.514,5.031,6.706,2.444.126,5.117-.963,5.373-5.747.26-4.835-2.291-6.032-5.115-6.177-.117-.006-.232-.009-.345-.009C94.076,31.184,92.387,33.386,92.225,36.41Zm43.036,17.207-7.534-.387-5.609-.288-6.571-.338c-1.956-.1-2.944-.949-2.865-2.437l.038-.692A4.447,4.447,0,0,1,114.2,46.3l9.547-10.487a17.689,17.689,0,0,1,2.579-2.371l0-.107a19.4,19.4,0,0,1-2.449-.02l-6.843-.35a3.067,3.067,0,0,1-2.187-.858,2.923,2.923,0,0,1-.644-2.217l.1-1.861a2.821,2.821,0,0,1,1.049-2.277,3.233,3.233,0,0,1,2.095-.492l6.136.314,5.608.289.1,0,3.429.178,3.734.189c1.956.1,2.944.952,2.865,2.438l-.036.694a4.456,4.456,0,0,1-1.477,3.175L128.31,43.084a16.377,16.377,0,0,1-2.633,2.369l-.007.105a13.036,13.036,0,0,1,2.508-.031l7.5.385a2.637,2.637,0,0,1,2.829,3.076l-.1,1.859a3.062,3.062,0,0,1-.733,2,2.812,2.812,0,0,1-2.14.776Q135.4,53.624,135.261,53.617ZM76.928,50.625l-3.421-.175a2.949,2.949,0,0,1-2.315-1.01,3.049,3.049,0,0,1-.516-2.067l1.152-21.522a2.936,2.936,0,0,1,.884-2.146,3.09,3.09,0,0,1,2.26-.624l3.422.177a3.012,3.012,0,0,1,2.237.915,2.975,2.975,0,0,1,.593,2.161L80.072,47.855a2.994,2.994,0,0,1-.815,2.084,2.875,2.875,0,0,1-2.054.693Q77.069,50.632,76.928,50.625ZM44.292,48.953l-3.53-.181a2.784,2.784,0,0,1-2.5-1.29,3.3,3.3,0,0,1-.334-1.787l1.723-32.15a2.9,2.9,0,0,1,.919-2.177,3.124,3.124,0,0,1,2.223-.593l15.262.784c7.549.387,12.363,6.068,11.954,13.721S64.2,38.2,56.652,37.809l-2.326-.119-5.547-.284a12.9,12.9,0,0,1-6.794-2.228h0A9.331,9.331,0,0,0,47.669,38.1c.065.014.131.027.2.04l-.024.441-.407,7.6a2.769,2.769,0,0,1-1.147,2.344,3.167,3.167,0,0,1-1.729.435Q44.429,48.96,44.292,48.953ZM56.387,24.635a4.171,4.171,0,1,0,4.382-3.869q-.111-.006-.22-.006A4.139,4.139,0,0,0,56.387,24.635ZM44.4,24.02a4.171,4.171,0,1,0,4.384-3.869c-.074,0-.148-.006-.221-.006A4.137,4.137,0,0,0,44.4,24.02ZM7.888,47.169A33.172,33.172,0,0,1,2.74,39.042,2.975,2.975,0,0,1,4.331,35.1a3.111,3.111,0,0,1,3.567.822,2.985,2.985,0,0,1,.464.735,27.154,27.154,0,0,0,4.221,6.661,2.955,2.955,0,0,1-.378,4.225,3.114,3.114,0,0,1-4.318-.37Zm11.738-9.638C16.952,34.413,15.813,29.555,16.5,24.2c.641-5.132,2.758-9.85,5.39-12.013a3.114,3.114,0,0,1,4.318.37,2.955,2.955,0,0,1-.377,4.225c-1.222,1-2.772,4.327-3.25,8.157-.47,3.659.18,6.924,1.738,8.741a2.955,2.955,0,0,1-.377,4.225,3.111,3.111,0,0,1-4.318-.37ZM.128,28.816A32.64,32.64,0,0,1,12.042.7a3.114,3.114,0,0,1,4.318.37A2.955,2.955,0,0,1,15.982,5.3a26.7,26.7,0,0,0-9.748,23,3.02,3.02,0,0,1-2.785,3.248q-.136.012-.27.012A3.04,3.04,0,0,1,.128,28.816Zm78.507-8.755-3.352-.172a3.206,3.206,0,0,1-2.288-.9,3.061,3.061,0,0,1-.674-2.321l.074-1.39a3.332,3.332,0,0,1,.648-1.959,3,3,0,0,1,2.641-.941l3.352.174a3.32,3.32,0,0,1,2.174.782A2.966,2.966,0,0,1,82,15.773l-.074,1.39a2.818,2.818,0,0,1-1.378,2.556,3.461,3.461,0,0,1-1.622.35Q78.783,20.069,78.635,20.061Z" transform="translate(-561.785 -602.785)" fill="#fa641e" stroke="rgba(0,0,0,0)" stroke-width="1"/>
  </g>
</svg>
